<svg width="87" height="66" viewBox="0 0 87 66" fill="none" xmlns="http://www.w3.org/2000/svg">
<path d="M86.3699 54.2556L81.5516 37.4253C85.8665 34.8862 86.3699 34.1608 86.3699 31.1864V17.548C86.3699 13.9933 83.4933 11.0916 79.9695 11.0916H77.5243H73.569C70.0452 11.0916 67.1686 13.9933 67.1686 17.548V24.7299V54.2556H73.569V41.125L75.6546 40.182L79.7537 54.6183L86.3699 54.2556ZM73.569 18.7813C73.569 18.1284 74.1443 17.548 74.7916 17.548H78.7469C79.3941 17.548 79.9695 18.1284 79.9695 18.7813V29.8806C79.9695 30.5335 79.3222 30.7512 78.7469 31.1139L73.569 34.1608V18.7813Z" fill="white"/>
<path d="M44.803 17.548V54.2556H51.2034V40.6172L57.6758 37.5703V54.2556H64.0762V17.548C64.0762 13.9933 61.1996 11.0916 57.6758 11.0916H51.2034C47.6796 11.0916 44.803 13.9933 44.803 17.548ZM57.6039 31.1139L51.1315 34.1608V18.7813C51.1315 18.1284 51.7068 17.548 52.3541 17.548H56.3094C56.9566 17.548 57.5319 18.1284 57.5319 18.7813V31.1139H57.6039Z" fill="white"/>
<path d="M41.6387 11.0916H35.2383V32.3471L28.8379 11.0916H22.4374V54.2556H28.766V33.0726L35.1664 54.2556H41.6387V11.0916Z" fill="white"/>
<path d="M12.8728 46.5659C12.8728 47.2188 12.2975 47.7991 11.6502 47.7991H7.69491C7.04767 47.7991 6.47235 47.2188 6.47235 46.5659V18.7813C6.47235 18.1284 7.04767 17.548 7.69491 17.548H11.6502C12.2975 17.548 12.8728 18.1284 12.8728 18.7813V20.74L11.2187 21.4654V27.9945C13.8796 26.7612 16.5405 25.5279 19.2013 24.2947V17.548C19.2013 13.9933 16.3247 11.0916 12.8009 11.0916H11.0749H6.40044C2.8766 11.0916 0 13.9933 0 17.548V47.7991C0 51.3538 2.8766 54.2556 6.40044 54.2556H12.8728C16.3966 54.2556 19.2732 51.3538 19.2732 47.7991V29.663C16.037 31.1864 12.8728 32.6373 9.63661 34.1608V40.6172L12.8728 39.0938V46.5659Z" fill="white"/>
<path d="M43.4367 0.5V3.76451H42.286V0.5H41.1354V3.76451V4.92522V8.26228H42.286V4.92522H43.4367V8.26228H44.5873V4.92522V3.76451V0.5H43.4367Z" fill="white"/>
<path d="M37.9711 0.5H34.5192V1.66072H35.6699V8.26228H36.8205V1.66072H37.9711V0.5Z" fill="white"/>
<path d="M50.6281 7.10156H48.9022V4.92522H50.6281V3.76451H48.9022V1.66072H50.6281V0.5H47.7515V8.26228H50.6281V7.10156Z" fill="white"/>
<path d="M22.0779 64.3392H20.5677C20.4239 64.3392 20.3519 64.2667 20.3519 64.1216V59.116C20.3519 58.9709 20.4239 58.8984 20.5677 58.8984H22.0779V57.7377H20.3519C19.7047 57.7377 19.2013 58.2455 19.2013 58.8984V64.3392C19.2013 64.9921 19.7047 65.4999 20.3519 65.4999H22.0779V64.3392Z" fill="white"/>
<path d="M25.8894 58.8984V62.0178C25.8894 62.6707 26.3928 63.1785 27.04 63.1785H28.1907C28.8379 63.1785 29.3413 62.6707 29.3413 62.0178V58.8984C29.3413 58.2455 28.8379 57.7377 28.1907 57.7377H27.04C26.3928 57.7377 25.8894 58.2455 25.8894 58.8984ZM27.903 62.0178H27.1839C27.04 62.0178 26.9681 61.9453 26.9681 61.8002V59.116C26.9681 58.9709 27.04 58.8984 27.1839 58.8984H27.903C28.0469 58.8984 28.1188 58.9709 28.1188 59.116V61.8002C28.1907 61.8727 28.0469 62.0178 27.903 62.0178Z" fill="white"/>
<path d="M36.7486 57.7377L35.526 61.6551L34.3754 57.7377H33.2247V65.4274H34.3754V61.6551L34.9507 63.6138L35.0945 64.0491H36.0294L36.1013 63.6138L36.7486 61.6551V65.4274H37.8273V57.7377H36.7486Z" fill="white"/>
<path d="M41.7826 57.7377V65.4274H42.9332V62.1629H44.0839C44.7311 62.1629 45.2345 61.6551 45.2345 61.0022V58.8984C45.2345 58.2455 44.7311 57.7377 44.0839 57.7377H41.7826ZM43.8681 61.0022H42.9332V58.8984H43.8681C44.012 58.8984 44.0839 58.9709 44.0839 59.116V60.7845C44.0839 60.9296 43.94 61.0022 43.8681 61.0022Z" fill="white"/>
<path d="M48.9741 58.8984V65.4999H50.1248V62.2354H51.2754V65.4999H52.426V58.8984C52.426 58.2455 51.9226 57.7377 51.2754 57.7377H50.1248C49.4775 57.7377 48.9741 58.2455 48.9741 58.8984ZM51.2754 61.0022H50.1248V59.116C50.1248 58.9709 50.1967 58.8984 50.3405 58.8984H51.0597C51.2035 58.8984 51.2754 58.9709 51.2754 59.116V61.0022Z" fill="white"/>
<path d="M59.7613 57.7377H58.6107V61.51L57.46 57.7377H56.3094V65.4274H57.46V61.6551L58.6107 65.4274H59.7613V57.7377Z" fill="white"/>
<path d="M67.2405 57.7377H66.0179L65.2269 59.914L64.4358 57.7377H63.2133L64.6516 61.7276V65.4274H65.8022V61.7276L67.2405 57.7377Z" fill="white"/>
<path fill-rule="evenodd" clip-rule="evenodd" d="M8.41409 61.0022H17.3316V62.1629H8.41409H3.23621V61.0022H8.41409Z" fill="white"/>
<path fill-rule="evenodd" clip-rule="evenodd" d="M52.5699 3.76453H70.3329V4.92524H52.5699V3.76453Z" fill="white"/>
<path fill-rule="evenodd" clip-rule="evenodd" d="M27.112 64.3394H29.2694V65.4275H27.112H25.8894V64.3394H27.112Z" fill="white"/>
<path fill-rule="evenodd" clip-rule="evenodd" d="M14.8145 3.76453H32.5775V4.92524H14.8145V3.76453Z" fill="white"/>
<path fill-rule="evenodd" clip-rule="evenodd" d="M74.3601 61.0022H83.2056V62.1629H74.3601H69.1822V61.0022H74.3601Z" fill="white"/>
</svg>
